<svg xmlns:xlink="http://www.w3.org/1999/xlink" xmlns="http://www.w3.org/2000/svg" width="410px" height="330px" viewBox="0 0 410 330" style="overflow: hidden; display: block; width: 410px; height: 330px;"><defs/><g style="pointer-events:visiblePainted" transform="translate(-9.324058227207082 0)" image-rendering="auto" shape-rendering="auto"><g><path fill="none" stroke="rgb(169,169,169)" d="M 168.33333333333334,240 L 168.33333333333334,250 L 35,250 L 35,270" stroke-opacity="1" stroke-width="1" stroke-linecap="butt" stroke-linejoin="miter" stroke-miterlimit="10"/></g><g><path fill="none" stroke="rgb(169,169,169)" d="M 185,240 L 185,270" stroke-opacity="1" stroke-width="1" stroke-linecap="butt" stroke-linejoin="miter" stroke-miterlimit="10"/></g><g><path fill="none" stroke="rgb(169,169,169)" d="M 201.66666666666666,240 L 201.66666666666666,250 L 335,250 L 335,270" stroke-opacity="1" stroke-width="1" stroke-linecap="butt" stroke-linejoin="miter" stroke-miterlimit="10"/></g><g><path fill="none" stroke="rgb(169,169,169)" d="M 185,150 L 185,180" stroke-opacity="1" stroke-width="1" stroke-linecap="butt" stroke-linejoin="miter" stroke-miterlimit="10"/></g><g><path fill="none" stroke="rgb(169,169,169)" d="M 318.3333333333333,60 L 318.3333333333333,70 L 185,70 L 185,90" stroke-opacity="1" stroke-width="1" stroke-linecap="butt" stroke-linejoin="miter" stroke-miterlimit="10"/></g><g><path fill="none" stroke="rgb(169,169,169)" d="M 351.6666666666667,60 L 351.6666666666667,70 L 390,70 L 390,180" stroke-opacity="1" stroke-width="1" stroke-linecap="butt" stroke-linejoin="miter" stroke-miterlimit="10"/></g><g><path fill="none" stroke="rgb(169,169,169)" d="M 335,150 L 335,160 L 365,160 L 365,180" stroke-opacity="1" stroke-width="1" stroke-linecap="butt" stroke-linejoin="miter" stroke-miterlimit="10"/></g><g><path fill="none" stroke="rgb(169,169,169)" d="M 335,60 L 335,90" stroke-opacity="1" stroke-width="1" stroke-linecap="butt" stroke-linejoin="miter" stroke-miterlimit="10"/></g><g transform="translate(310 0)"><g transform="scale(2.78)">
            <svg svgBox="0 0 18 18" fill="msportalfx-svg-placeholder" role="presentation" focusable="false"><g><title/><defs><linearGradient id="ygc3_0" x1="9.88" x2="11.52" y1="8.59" y2="10.23" gradientTransform="rotate(-.08 -285.464 -1454.08)" gradientUnits="userSpaceOnUse"><stop offset="0" stop-color="#86d633"/><stop offset=".24" stop-color="#83d232"/><stop offset=".5" stop-color="#7cc52f"/><stop offset=".76" stop-color="#6fb02a"/><stop offset="1" stop-color="#5e9624"/></linearGradient><linearGradient id="ygc3_1" x1="6.18" x2="7.81" y1="8.59" y2="10.23"/><linearGradient id="ygc3_2" x1="2.48" x2="4.11" y1="8.59" y2="10.23"/></defs><title>Icon-networking-61</title><circle cx="12.74" cy="8.99" r="1.16" fill="url(#ygc3_0)"/><circle cx="9.04" cy="9" r="1.16" fill="url(#ygc3_1)"/><circle cx="5.34" cy="9" r="1.16" fill="url(#ygc3_2)"/><path fill="#50e6ff" d="M6.182 13.638l-.664.665a.3.3 0 0 1-.424 0L.18 9.404a.6.6 0 0 1-.001-.848l.663-.666 5.34 5.324a.3.3 0 0 1 0 .425z"/><path fill="#1490df" d="M5.418 3.708l.666.664a.3.3 0 0 1 0 .424L.838 10.057l-.666-.663a.6.6 0 0 1-.001-.849L4.994 3.71a.3.3 0 0 1 .424 0z"/><path fill="#50e6ff" d="M17.157 7.88l.663.666a.6.6 0 0 1 0 .848l-4.915 4.9a.3.3 0 0 1-.424 0l-.664-.666a.3.3 0 0 1 0-.424l5.34-5.324z"/><path fill="#1490df" d="M17.818 9.387l-.665.664-5.247-5.261a.3.3 0 0 1 0-.425l.674-.67a.3.3 0 0 1 .424 0l4.823 4.836a.6.6 0 0 1-.002.849z"/></g></svg>
        </g></g><g transform="translate(160 90)"><g transform="scale(2.78)">
            <svg svgBox="0 0 18 18" fill="msportalfx-svg-placeholder" role="presentation" focusable="false"><g><title/><defs><linearGradient id="ygc3_3" x1="9.033" x2="9.033" y1="10.305" y2="7.695" gradientUnits="userSpaceOnUse"><stop offset="0" stop-color="#5e9624"/><stop offset=".241" stop-color="#6fb02a"/><stop offset=".501" stop-color="#7cc52f"/><stop offset=".756" stop-color="#83d232"/><stop offset="1" stop-color="#86d633"/></linearGradient></defs><path fill="url(#ygc3_3)" d="M9.031 7.7A1.305 1.305 0 1 0 10.338 9a1.305 1.305 0 0 0-1.307-1.3z"/><path fill="#50e6ff" d="M6.34 13.375l-.626.629a.284.284 0 0 1-.402 0L.673 9.38a.568.568 0 0 1 0-.804l.626-.629 5.04 5.027a.284.284 0 0 1 .002.402z"/><path fill="#1490df" d="M5.62 3.996l.627.626a.284.284 0 0 1 0 .402L1.295 9.99l-.626-.624a.568.568 0 0 1 0-.803L5.22 3.999a.284.284 0 0 1 .401 0z"/><path fill="#50e6ff" d="M16.702 7.947l.627.629a.568.568 0 0 1-.001.803l-4.639 4.626a.284.284 0 0 1-.402 0l-.627-.63a.284.284 0 0 1 .001-.401l5.041-5.027z"/><path fill="#1490df" d="M17.333 9.364l-.629.627-4.953-4.967a.284.284 0 0 1 0-.402l.628-.626a.284.284 0 0 1 .402 0l4.552 4.566a.568.568 0 0 1 0 .803z"/></g></svg>
        </g></g><g transform="translate(160 180)"><g transform="scale(2.78)">
            <svg svgBox="0 0 18 18" fill="msportalfx-svg-placeholder" role="presentation" focusable="false"><g><title/><defs><linearGradient id="ygc3_4" x1="9.01" x2="9.01" y1="16.5" y2="1.5" gradientUnits="userSpaceOnUse"><stop offset="0" stop-color="#5e9641"/><stop offset=".34" stop-color="#6baa42"/><stop offset=".67" stop-color="#73b743"/><stop offset="1" stop-color="#76bb43"/></linearGradient></defs><title>Icon-networking-80</title><path fill="#ffca00" d="M15.89 2.91h1.27a.34.34 0 0 1 .34.34v3.5a.34.34 0 0 1-.34.34h-1.27V2.91zm0 6.09h1.27a.34.34 0 0 1 .34.34v5.86a.34.34 0 0 1-.34.34h-1.27V9z"/><rect width="13.76" height="15" x="2.13" y="1.5" fill="url(#ygc3_4)" rx=".69"/><path fill="#b4ec36" d="M5.9 12.9h-.71a.2.2 0 0 1-.19-.21V4.34a.19.19 0 0 1 .19-.2h1.93a.19.19 0 0 1 .19.2.2.2 0 0 1-.19.21H5.38v7.93h.52a.2.2 0 0 1 .19.21.21.21 0 0 1-.19.21z"/><path fill="#b4ec36" d="M6 13.92H4.4a.2.2 0 0 1-.19-.21L4.08 3.38a.2.2 0 0 1 .06-.15.16.16 0 0 1 .13-.06h2.85v.41H4.47l.12 9.92H6zm6-.92h-1.59a.19.19 0 0 1-.14-.07.18.18 0 0 1-.06-.14V7.9a.19.19 0 0 1 .19-.2h.91V5.45h.38v2.44a.2.2 0 0 1-.18.21h-.91v4.42H12z"/><rect width="6.14" height="3.11" x="7.07" y="2.29" fill="#365615" rx=".26"/><rect width="4.9" height="1.09" x="5.86" y="12.69" fill="#365615" rx=".26" transform="rotate(90 8.305 13.235)"/><rect width="4.9" height="1.09" x="3.99" y="12.71" fill="#365615" rx=".26" transform="rotate(90 6.44 13.26)"/><rect width="4.9" height="1.09" x="9.98" y="12.71" fill="#f2f2f2" rx=".26" transform="rotate(90 12.425 13.255)"/><ellipse cx="8.11" cy="8.06" fill="#f2f2f2" rx="1.04" ry="1.12"/><path fill="#3b3b3b" d="M2.11 12.25H.84a.34.34 0 0 1-.34-.3V6.09a.34.34 0 0 1 .34-.34h1.27v6.5z"/></g></svg>
        </g></g><g transform="translate(10 270)"><g transform="scale(2.78)">
            <svg svgBox="0 0 18 18" fill="msportalfx-svg-placeholder" role="presentation" focusable="false"><g><title/><defs><linearGradient id="ygc3_5" x1="8.88" x2="8.88" y1="12.21" y2=".21" gradientUnits="userSpaceOnUse"><stop offset="0" stop-color="#0078d4"/><stop offset=".82" stop-color="#5ea0ef"/></linearGradient><linearGradient id="ygc3_6" x1="8.88" x2="8.88" y1="16.84" y2="12.21" gradientUnits="userSpaceOnUse"><stop offset=".15" stop-color="#ccc"/><stop offset="1" stop-color="#707070"/></linearGradient></defs><title>Icon-compute-21</title><rect width="18" height="12" x="-.12" y=".21" fill="url(#ygc3_5)" rx=".6"/><path fill="#50e6ff" d="M11.88 4.46v3.49l-3 1.76v-3.5l3-1.75z"/><path fill="#c3f1ff" d="M11.88 4.46l-3 1.76-3-1.76 3-1.75 3 1.75z"/><path fill="#9cebff" d="M8.88 6.22v3.49l-3-1.76V4.46l3 1.76z"/><path fill="#c3f1ff" d="M5.88 7.95l3-1.74v3.5l-3-1.76z"/><path fill="#9cebff" d="M11.88 7.95l-3-1.74v3.5l3-1.76z"/><path fill="url(#ygc3_6)" d="M12.49 15.84c-1.78-.28-1.85-1.56-1.85-3.63H7.11c0 2.07-.06 3.35-1.84 3.63a1 1 0 0 0-.89 1h9a1 1 0 0 0-.89-1z"/></g></svg>
        </g></g><g transform="translate(160 270)"><g transform="scale(2.78)">
            <svg svgBox="0 0 18 18" fill="msportalfx-svg-placeholder" role="presentation" focusable="false"><g><title/><defs><linearGradient id="ygc3_7" x1="9.01" x2="9.01" y1=".75" y2="17.25" gradientUnits="userSpaceOnUse"><stop offset="0" stop-color="#5ea0ef"/><stop offset=".18" stop-color="#559cec"/><stop offset=".47" stop-color="#3c91e5"/><stop offset=".84" stop-color="#1380da"/><stop offset="1" stop-color="#0078d4"/></linearGradient></defs><title>Icon-networking-67</title><path fill="#0078d4" d="M16.36 8.4c0 4.84-5.85 8.74-7.12 9.53a.46.46 0 0 1-.48 0c-1.27-.79-7.12-4.69-7.12-9.53V2.58a.46.46 0 0 1 .45-.46C6.64 2 5.59 0 9 0s2.36 2 6.91 2.12a.46.46 0 0 1 .45.46z"/><path fill="#6bb9f2" d="M15.75 8.45c0 4.44-5.36 8-6.53 8.74a.43.43 0 0 1-.44 0c-1.17-.72-6.53-4.3-6.53-8.74V3.11a.42.42 0 0 1 .41-.42C6.83 2.58 5.87.75 9 .75s2.17 1.83 6.34 1.94a.42.42 0 0 1 .41.42z"/><path fill="url(#ygc3_7)" d="M9 9V.75c3.13 0 2.17 1.83 6.34 1.94a.43.43 0 0 1 .41.43v5.34a4.89 4.89 0 0 1 0 .54zm0 0H2.28c.4 4.18 5.38 7.5 6.5 8.19a.39.39 0 0 0 .18.06H9z"/><path fill="#50e6ff" d="M2.66 2.69C6.83 2.58 5.87.75 9 .75V9H2.28a4.89 4.89 0 0 1 0-.54V3.12a.43.43 0 0 1 .38-.43zM15.72 9H9v8.25a.39.39 0 0 0 .18-.06c1.16-.69 6.14-4.01 6.54-8.19z"/></g></svg>
        </g></g><g transform="translate(310 270)"><g transform="scale(2.78)">
            <svg svgBox="0 0 18 18" fill="msportalfx-svg-placeholder" role="presentation" focusable="false"><g><title/><defs><linearGradient id="ygc3_8" x1="9" x2="9" y1="15.83" y2="5.79" gradientUnits="userSpaceOnUse"><stop offset="0" stop-color="#32bedd"/><stop offset=".18" stop-color="#32caea"/><stop offset=".41" stop-color="#32d2f2"/><stop offset=".78" stop-color="#32d4f5"/></linearGradient></defs><title>Icon-networking-69</title><path fill="url(#ygc3_8)" d="M.5 5.79h17v9.48a.57.57 0 0 1-.57.57H1.07a.57.57 0 0 1-.57-.57V5.79z"/><path fill="#767676" d="M1.07 2.17h15.86a.57.57 0 0 1 .57.57v3.05H.5V2.73a.57.57 0 0 1 .57-.56z"/><circle cx="12.82" cy="10.19" r="1.38" fill="#f2f2f2"/><circle cx="9.06" cy="10.19" r="1.38" fill="#f2f2f2"/><circle cx="5.18" cy="10.19" r="1.38" fill="#f2f2f2"/><rect width="12.43" height="1.46" x="2.79" y="3.25" fill="#f2f2f2" rx=".28"/></g></svg>
        </g></g><g transform="translate(352.5 180)"><g transform="scale(2.78)">
            <svg svgBox="0 0 18 18" fill="msportalfx-svg-placeholder" role="presentation" focusable="false"><g><title/><defs><linearGradient id="ygc3_9" x1="9.033" x2="9.033" y1="10.305" y2="7.695" gradientUnits="userSpaceOnUse"><stop offset="0" stop-color="#5e9624"/><stop offset=".241" stop-color="#6fb02a"/><stop offset=".501" stop-color="#7cc52f"/><stop offset=".756" stop-color="#83d232"/><stop offset="1" stop-color="#86d633"/></linearGradient></defs><path fill="url(#ygc3_9)" d="M9.031 7.7A1.305 1.305 0 1 0 10.338 9a1.305 1.305 0 0 0-1.307-1.3z"/><path fill="#50e6ff" d="M6.34 13.375l-.626.629a.284.284 0 0 1-.402 0L.673 9.38a.568.568 0 0 1 0-.804l.626-.629 5.04 5.027a.284.284 0 0 1 .002.402z"/><path fill="#1490df" d="M5.62 3.996l.627.626a.284.284 0 0 1 0 .402L1.295 9.99l-.626-.624a.568.568 0 0 1 0-.803L5.22 3.999a.284.284 0 0 1 .401 0z"/><path fill="#50e6ff" d="M16.702 7.947l.627.629a.568.568 0 0 1-.001.803l-4.639 4.626a.284.284 0 0 1-.402 0l-.627-.63a.284.284 0 0 1 .001-.401l5.041-5.027z"/><path fill="#1490df" d="M17.333 9.364l-.629.627-4.953-4.967a.284.284 0 0 1 0-.402l.628-.626a.284.284 0 0 1 .402 0l4.552 4.566a.568.568 0 0 1 0 .803z"/></g></svg>
        </g></g><g transform="translate(310 90)"><g transform="scale(2.78)">
            <svg svgBox="0 0 18 18" fill="msportalfx-svg-placeholder" role="presentation" focusable="false"><g><title/><defs><linearGradient id="ygc3_10" x1="8.59" x2="9.12" y1="-7.79" y2="20.05" gradientUnits="userSpaceOnUse"><stop offset=".22" stop-color="#32d4f5"/><stop offset=".47" stop-color="#31d1f3"/><stop offset=".63" stop-color="#2ec9eb"/><stop offset=".77" stop-color="#29bade"/><stop offset=".89" stop-color="#22a5cb"/><stop offset="1" stop-color="#198ab3"/><stop offset="1" stop-color="#198ab3"/></linearGradient></defs><title>Icon-networking-63</title><path fill="url(#ygc3_10)" d="M15.06 8.67h-1V5.59a5.81 5.81 0 0 0-1.49-3.92A4.79 4.79 0 0 0 8.91 0a4.79 4.79 0 0 0-3.7 1.67 5.73 5.73 0 0 0-1.49 3.92v3.08h-.81a.7.7 0 0 0-.69.69v8a.7.7 0 0 0 .69.69h12.15a.71.71 0 0 0 .7-.69v-8a.71.71 0 0 0-.7-.69zm-3.37 0H6.13V5.54A3.18 3.18 0 0 1 7 3.39a2.51 2.51 0 0 1 1.88-.86 2.54 2.54 0 0 1 1.89.86 3.19 3.19 0 0 1 .32.43 3 3 0 0 1 .61 1.71z"/><path fill="#50e6ff" d="M15.09 8.67H2.92a.66.66 0 0 0-.44.17l13.05 9a.67.67 0 0 0 .25-.52v-8a.71.71 0 0 0-.69-.65z"/><path d="M2.94 8.67H15.1a.7.7 0 0 1 .45.17l-13.06 9a.7.7 0 0 1-.25-.52v-8a.72.72 0 0 1 .7-.65z" opacity=".2" fill="#fff"/><path d="M7.8 10.6L9 9.4a.07.07 0 0 1 .09 0l1.19 1.2a.06.06 0 0 1 0 .1h-.7a.06.06 0 0 0-.06.06v1.54a.06.06 0 0 1-.06.06h-.79a.05.05 0 0 1-.06-.06v-1.54a.07.07 0 0 0-.07-.06h-.7a.06.06 0 0 1-.04-.1zm2.47 5.48l-1.19 1.19a.06.06 0 0 1-.09 0L7.8 16.08a.06.06 0 0 1 0-.1h.7a.07.07 0 0 0 .07-.06v-1.55a.06.06 0 0 1 .06-.06h.74a.06.06 0 0 1 .06.06v1.55a.06.06 0 0 0 .06.06h.7a.06.06 0 0 1 .08.1zm-4.7-1.55v-.7a.06.06 0 0 0-.06-.06H4a.06.06 0 0 1-.06-.06V13a.06.06 0 0 1 .06-.09h1.51a.06.06 0 0 0 .06-.06v-.7a.07.07 0 0 1 .11-.05l1.19 1.2a.06.06 0 0 1 0 .08l-1.19 1.2a.07.07 0 0 1-.11-.05zm6.93-2.38v.7a.06.06 0 0 0 .06.06h1.54s.07 0 .07.06v.74a.07.07 0 0 1-.07.06h-1.54a.06.06 0 0 0-.06.06v.7a.06.06 0 0 1-.1.05l-1.19-1.2v-.08l1.19-1.2s.1-.01.1.05z" fill="#fff"/></g></svg>
        </g></g><g transform="translate(310.65121496192586 46.390625)"><text font-family="Arial" font-size="12px" font-style="normal" font-weight="normal" text-anchor="start" fill="rgb(0,0,0)" fill-opacity="1" dy="1em" transform="translate(0 0)">testvnet2</text></g><g transform="translate(162.98326079158616 136.390625)"><text font-family="Arial" font-size="12px" font-style="normal" font-weight="normal" text-anchor="start" fill="rgb(0,0,0)" fill-opacity="1" dy="1em" transform="translate(0 0)">frontend</text></g><g transform="translate(149.31325345340136 226.390625)"><text font-family="Arial" font-size="12px" font-style="normal" font-weight="normal" text-anchor="start" fill="rgb(0,0,0)" fill-opacity="1" dy="1em" transform="translate(0 0)">eastusvm814</text></g><g transform="translate(9.324058227207082 316.390625)"><text font-family="Arial" font-size="12px" font-style="normal" font-weight="normal" text-anchor="start" fill="rgb(0,0,0)" fill-opacity="1" dy="1em" transform="translate(0 0)">eastusvm</text></g><g transform="translate(147.6521102556408 316.390625)"><text font-family="Arial" font-size="12px" font-style="normal" font-weight="normal" text-anchor="start" fill="rgb(0,0,0)" fill-opacity="1" dy="1em" transform="translate(0 0)">eastusvm-nsg</text></g><g transform="translate(302.6560477896356 316.390625)"><text font-family="Arial" font-size="12px" font-style="normal" font-weight="normal" text-anchor="start" fill="rgb(0,0,0)" fill-opacity="1" dy="1em" transform="translate(0 0)">eastusvm-ip</text></g><g transform="translate(334.8053971411557 226.390625)"><text font-family="Arial" font-size="12px" font-style="normal" font-weight="normal" text-anchor="start" fill="rgb(0,0,0)" fill-opacity="1" dy="1em" transform="translate(0 0)">GatewaySubnet</text></g><g transform="translate(298.31129406427596 136.390625)"><text font-family="Arial" font-size="12px" font-style="normal" font-weight="normal" text-anchor="start" fill="rgb(0,0,0)" fill-opacity="1" dy="1em" transform="translate(0 0)">eastusvnetgw</text></g></g></svg>